<svg width="706" height="280" viewBox="0 0 706 280" fill="none" xmlns="http://www.w3.org/2000/svg">
<path d="M0 133.49C0.021683 95.1604 0.0161892 57.3313 0.0841522 19.5023C0.101761 9.70845 3.78653 4.2855 11.6081 1.73234C13.7472 1.03401 15.8852 1.15794 18.035 1.1573C67.6962 1.1425 117.357 1.144 167.019 1.14906C179.408 1.15031 185.431 7.04909 185.454 19.4894C185.5 45.1529 185.413 70.8166 185.413 96.4803C185.411 147.141 185.44 197.802 185.424 248.463C185.422 252.448 185.609 256.424 184.862 260.415C183.311 268.712 176.76 274.787 168.294 274.8C117.8 274.882 67.3054 274.903 16.8112 274.808C6.63586 274.789 0.051391 267.619 0.037796 256.976C-0.014572 215.981 0.006515 174.985 0 133.49ZM86.8467 198.884C84.683 198.882 82.5191 198.866 80.3555 198.88C73.3543 198.925 72.6702 199.603 72.665 206.626C72.6541 221.439 72.6396 236.253 72.6883 251.066C72.694 252.819 72.1094 254.746 73.5885 256.329C86.4964 256.329 99.4039 256.329 112.443 256.329C112.64 255.46 112.905 254.832 112.906 254.204C112.936 237.561 112.914 220.917 112.965 204.273C112.977 200.366 110.792 198.933 107.309 198.904C100.818 198.848 94.3269 198.886 86.8467 198.884ZM126.34 89.1034C124.821 97.3342 125.949 105.633 125.729 113.897C125.668 116.176 127.15 117.122 129.287 117.127C134.936 117.139 140.585 117.124 146.234 117.129C148.674 117.13 149.937 115.952 149.937 113.486C149.939 106.175 149.942 98.8648 149.937 91.5544C149.936 89.4296 149.04 87.8758 146.761 87.9462C140.155 88.1503 133.51 87.0608 126.34 89.1034ZM102.881 139.181C96.9133 139.089 90.9457 138.974 84.9774 138.916C82.1518 138.888 80.6734 140.304 80.6771 143.192C80.6861 150.165 80.7175 157.139 80.6593 164.112C80.6341 167.145 82.1714 168.211 85.0013 168.175C90.1477 168.109 95.2956 168.121 100.443 168.156C103.561 168.177 104.982 166.693 104.959 163.586C104.908 156.779 104.937 149.971 104.924 143.163C104.922 141.818 104.841 140.487 102.881 139.181ZM141.655 168.182C149.953 168.144 149.956 168.144 149.972 160.015C149.979 156.199 149.975 152.383 149.972 148.566C149.964 138.861 149.962 138.787 140.234 138.882C123.349 139.048 125.818 136.676 125.667 153.319C125.532 168.183 125.632 168.184 141.655 168.182ZM59.5751 90.0426C58.9349 89.0043 58.0468 88.0808 56.8435 88.0618C50.8525 87.9676 44.8514 87.8159 38.8709 88.0766C36.2196 88.1921 35.6452 90.5215 35.6564 92.906C35.6868 99.4025 35.7595 105.901 35.6238 112.395C35.5534 115.764 36.7965 117.306 40.282 117.202C45.1086 117.058 49.9489 117.014 54.7718 117.21C58.7381 117.372 60.0959 115.612 59.9966 111.832C59.8129 104.841 59.8714 97.8438 59.5751 90.0426ZM146.992 36.9989C141.497 36.9577 136 36.9481 130.505 36.8635C127.231 36.8131 125.581 38.1452 125.638 41.6151C125.746 48.2772 125.7 54.9426 125.648 61.6061C125.623 64.7649 127.154 66.1665 130.23 66.1546C135.227 66.1351 140.228 66.0695 145.222 66.1947C148.651 66.2807 150.03 64.7647 149.981 61.3992C149.886 54.9033 149.948 48.405 149.968 41.9077C149.973 40.0014 149.811 38.2098 146.992 36.9989ZM104.921 62.3279C104.928 55.5029 104.893 48.6776 104.96 41.8533C104.989 38.9096 104.017 36.9431 100.771 36.9195C95.4445 36.8808 90.1173 36.8695 84.7915 36.9319C81.9165 36.9656 80.6518 38.5896 80.6663 41.4216C80.7012 48.2465 80.7174 55.072 80.6536 61.8965C80.6263 64.8116 81.8778 66.1971 84.8289 66.165C90.1551 66.107 95.4822 66.1352 100.809 66.126C102.862 66.1224 104.356 65.3477 104.921 62.3279ZM104.96 102.981C104.955 99.4928 104.898 96.0036 104.959 92.5165C105.014 89.4245 103.617 87.8743 100.495 87.8797C95.512 87.8884 90.5281 87.9178 85.546 87.8418C81.8896 87.7861 80.5325 89.5972 80.6358 93.1008C80.7632 97.4157 80.6585 101.737 80.6607 106.056C80.6667 117.889 79.6225 117.232 91.6209 117.151C106.79 117.047 104.819 118.926 104.96 102.981ZM59.9488 41.5505C60.0718 38.089 58.1462 36.8563 54.9646 36.8774C50.1522 36.9091 45.3392 36.8983 40.5267 36.8698C37.2519 36.8505 35.6323 38.3663 35.6567 41.709C35.7051 48.3469 35.7045 54.9855 35.661 61.6234C35.6404 64.7559 37.1434 66.1746 40.2213 66.1589C45.1998 66.1334 50.1792 66.1113 55.1569 66.1823C58.4954 66.2298 60.0049 64.7121 59.9693 61.3659C59.9022 55.0603 59.9561 48.7534 59.9488 41.5505ZM35.6567 159.793C36.1752 163.036 33.8856 167.857 39.9069 168.108C45.2284 168.33 50.5665 168.14 55.8971 168.162C58.5728 168.173 59.9202 166.876 59.9247 164.214C59.9364 157.384 59.954 150.553 59.9227 143.723C59.908 140.512 58.4054 138.799 55.0048 138.864C50.3418 138.953 45.6758 138.918 41.0115 138.882C37.3003 138.854 35.5082 140.485 35.6252 144.345C35.7715 149.172 35.6579 154.007 35.6567 159.793Z" fill="black"/>
<path d="M321.176 184.547C324.121 175.652 327.07 167.174 329.702 158.599C330.709 155.319 332.486 154.055 335.83 154.109C343.657 154.235 351.493 154.305 359.316 154.076C363.412 153.956 364.714 155.796 364.367 159.481C363.538 168.285 363.771 177.115 363.625 185.938C363.145 214.927 364.724 243.889 364.63 272.871C364.609 279.347 364.358 279.623 357.879 279.687C353.715 279.729 349.543 279.544 345.387 279.729C341.22 279.915 339.9 278.054 339.921 274.04C340.036 252.551 339.982 231.061 339.929 209.572C339.924 207.65 340.478 205.592 339.079 203.585C337.089 204.445 336.956 206.343 336.404 207.956C330.486 225.256 324.452 242.517 318.748 259.886C317.478 263.753 315.612 265.348 311.601 264.913C308.967 264.627 306.276 264.876 303.611 264.853C293.411 264.765 295.34 265.855 292.067 256.329C285.536 237.32 279.157 218.259 272.013 199.2C271.905 200.345 271.705 201.489 271.703 202.634C271.665 225.118 271.52 247.6 272.373 270.079C272.739 279.727 272.471 279.738 263.061 279.766C260.395 279.773 257.73 279.783 255.064 279.77C248.072 279.736 247.981 279.669 247.974 272.876C247.958 256.051 247.97 239.225 247.971 222.4C247.971 201.743 248.138 181.084 247.853 160.431C247.781 155.252 249.458 153.774 254.409 154.053C261.051 154.427 267.744 154.394 274.39 154.051C278.83 153.822 280.894 155.515 282.277 159.671C290.088 183.155 298.146 206.557 306.435 230.913C311.459 215.11 316.256 200.017 321.176 184.547Z" fill="black"/>
<path d="M354.693 33.1655C361.865 10.7133 376.105 0.620223 398.704 0.0251301C431.245 -0.831834 446.781 20.328 449.756 48.2923C451.229 62.137 450.818 75.8268 448.658 89.5004C444.787 114.001 427.26 128.464 402.313 128.961C375.889 129.487 357.814 114.172 353.384 90.3879C349.871 71.5235 349.517 52.3953 354.693 33.1655ZM383.659 95.5806C387.789 103.399 394.554 107.018 403.298 106.09C412.923 105.067 417.231 101.479 419.997 92.2886C422.634 83.5256 421.889 74.5223 422.034 65.5724C422.186 56.2485 421.766 46.9604 419.809 37.836C417.704 28.0205 410.933 22.6152 400.199 23.0486C390.198 23.4524 385.854 26.2998 382.599 36.7803C380.852 42.4065 380.546 48.2144 380.141 53.9708C379.174 67.7398 378.655 81.5311 383.659 95.5806Z" fill="black"/>
<path d="M313.436 1.15687C319.254 1.1558 324.586 1.2639 329.911 1.11937C333.242 1.02894 334.703 2.1681 334.696 5.71031C334.615 44.6796 334.612 83.6491 334.682 122.618C334.689 125.964 333.294 126.96 330.199 126.893C324.373 126.767 318.537 126.706 312.716 126.915C308.917 127.051 307.877 125.401 307.911 121.857C308.045 108.203 307.778 94.542 308.072 80.8923C308.178 75.9708 306.446 74.5187 301.738 74.7297C294.591 75.0499 287.415 74.9603 280.26 74.759C276.328 74.6484 274.46 75.7428 274.6 80.0829C275.03 93.3912 274.136 106.719 275.189 120.028C275.681 126.257 275.026 126.839 268.703 126.861C263.374 126.879 258.042 126.755 252.717 126.897C249.369 126.986 247.93 125.786 247.937 122.274C248.01 83.3053 248.011 44.3359 247.942 5.36671C247.936 2.0084 249.381 1.04554 252.463 1.11879C257.955 1.24931 263.453 1.12907 268.949 1.15507C274.835 1.1829 275.779 1.94224 275.239 8.32292C274.254 19.9708 274.834 31.6208 274.68 43.2678C274.576 51.1632 274.663 51.1666 282.442 51.1704C288.936 51.1736 295.449 50.8801 301.921 51.2641C306.915 51.5604 308.142 49.5743 308.049 44.9145C307.794 32.0964 308.06 19.2686 307.91 6.44712C307.866 2.71525 308.88 0.65321 313.436 1.15687Z" fill="black"/>
<path d="M384.459 261.848C393.771 227.479 402.994 193.508 412.029 159.488C413.129 155.348 415.091 153.863 419.339 154.049C426.487 154.361 433.668 154.353 440.817 154.05C444.948 153.875 446.702 155.556 447.744 159.363C456.642 191.866 465.681 224.33 474.672 256.807C476.355 262.887 477.896 269.01 479.722 275.046C480.834 278.721 479.501 279.906 475.96 279.848C469.966 279.748 463.964 279.68 457.975 279.876C454.63 279.986 453.216 278.476 452.522 275.432C451.232 269.769 449.581 264.186 448.355 258.51C447.744 255.683 446.345 254.699 443.549 254.731C434.723 254.832 425.892 254.886 417.069 254.692C413.707 254.618 412.303 256.035 411.658 259.113C410.502 264.632 408.957 270.073 407.888 275.606C407.302 278.645 405.826 279.858 402.823 279.815C396.662 279.728 390.499 279.793 384.336 279.784C380.728 279.78 379.643 278.252 380.838 274.703C382.214 270.62 383.174 266.395 384.459 261.848ZM428.221 193.754C425.001 206.548 421.78 219.343 418.409 232.738C426.519 232.738 433.698 232.738 441.509 232.738C438.354 217.225 434.091 202.452 429.928 186.557C429.273 189.459 428.872 191.236 428.221 193.754Z" fill="black"/>
<path d="M616.661 64.4185C616.523 75.4191 617.842 73.7932 607.635 73.8888C599.97 73.9607 592.304 73.9864 584.639 73.9097C580.388 73.8671 578.213 75.2167 578.505 80.04C578.897 86.5159 578.747 93.0362 578.568 99.5303C578.472 102.994 579.734 104.238 583.211 104.19C594.041 104.04 604.877 104.292 615.704 104.066C620.118 103.974 621.703 105.702 621.524 109.932C621.341 114.256 621.503 118.594 621.496 122.926C621.491 125.571 620.224 126.863 617.498 126.859C596.834 126.832 576.171 126.829 555.507 126.863C552.567 126.867 551.221 125.463 551.181 122.633C551.153 120.634 551.129 118.634 551.163 116.635C551.768 80.6396 551.172 44.6463 551.012 8.65229C550.98 1.49274 551.109 1.15717 558.275 1.44886C576.93 2.20813 595.576 1.48017 614.226 1.43958C620.442 1.42603 620.624 1.66458 620.655 7.97263C620.673 11.4721 620.389 14.9974 620.721 18.4652C621.203 23.51 618.872 24.7745 614.285 24.5829C604.301 24.1657 594.297 24.2397 584.313 23.8128C579.993 23.6281 578.27 25.0249 578.502 29.4756C578.787 34.9589 578.864 40.4973 578.418 45.9618C577.987 51.2337 580.106 52.5077 585.007 52.2977C593.324 51.9414 601.667 52.1916 610 52.2134C616.616 52.2306 616.627 52.2577 616.658 58.9374C616.666 60.6038 616.66 62.2703 616.661 64.4185Z" fill="black"/>
<path d="M567.751 277.908C566.586 270.981 568.042 264.533 568.012 258.041C567.899 233.384 568.033 208.726 567.929 184.069C567.895 175.914 567.515 167.757 567.112 159.61C566.909 155.526 568.471 154.039 572.622 154.072C592.28 154.225 611.941 154.221 631.599 154.075C635.589 154.045 636.918 155.537 636.706 159.364C636.476 163.517 636.434 167.706 636.716 171.852C636.994 175.944 635.179 176.974 631.432 176.913C621.106 176.745 610.771 177.014 600.446 176.783C596.234 176.688 594.328 177.802 594.584 182.368C594.912 188.181 594.879 194.037 594.589 199.854C594.376 204.128 596.122 205.308 600.141 205.211C609.132 204.994 618.14 205.362 627.126 205.056C631.622 204.902 633.06 206.521 632.72 210.824C632.419 214.632 632.489 218.492 632.696 222.312C632.889 225.855 631.367 226.952 627.994 226.903C618.666 226.768 609.331 227.028 600.007 226.796C595.785 226.691 594.441 228.287 594.599 232.355C594.846 238.676 594.894 245.026 594.582 251.341C594.376 255.497 596.156 256.477 599.87 256.41C610.196 256.225 620.53 256.408 630.855 256.171C635.153 256.072 636.948 257.577 636.711 261.962C636.46 266.613 636.575 271.29 636.679 275.953C636.74 278.688 635.661 279.858 632.874 279.85C612.382 279.792 591.889 279.808 571.397 279.789C570.058 279.788 568.693 279.745 567.751 277.908Z" fill="black"/>
<path d="M527.63 268.462C527.578 280.903 528.954 279.787 516.56 279.819C513.897 279.826 511.233 279.82 508.569 279.815C500.975 279.802 500.966 279.801 500.964 271.958C500.959 242.655 500.831 213.352 501.08 184.051C501.124 178.868 499.534 177.338 494.561 177.687C489.094 178.071 483.577 177.676 478.085 177.768C474.589 177.826 472.82 176.526 472.937 172.8C473.087 167.977 473.06 163.143 472.94 158.317C472.868 155.4 473.92 154.118 476.98 154.126C501.787 154.19 526.594 154.188 551.402 154.123C554.754 154.114 555.722 155.707 555.645 158.749C555.531 163.241 555.47 167.746 555.68 172.232C555.859 176.09 554.274 177.707 550.452 177.656C544.96 177.583 539.444 178.043 533.977 177.682C529.006 177.354 527.396 178.877 527.446 184.056C527.717 212.024 527.607 239.996 527.63 268.462Z" fill="black"/>
<path d="M519.438 24.8656C517.459 24.8656 515.958 24.9019 514.459 24.8574C511.674 24.7746 510.586 26.1731 510.656 28.8608C510.738 32.0252 510.662 35.1935 510.661 38.3601C510.66 66.193 510.571 94.0265 510.758 121.858C510.785 125.922 509.508 127.101 505.668 126.929C500.345 126.69 494.993 126.664 489.674 126.944C485.29 127.175 483.867 125.503 483.9 121.161C484.062 99.8292 483.974 78.4955 483.972 57.1626C483.971 48.1627 483.831 39.1601 484.02 30.1643C484.102 26.2615 482.636 24.7378 478.775 24.8364C472.779 24.9897 466.771 24.7116 460.778 24.9102C457.036 25.0343 455.753 23.5242 455.92 19.9068C456.127 15.4164 456.138 10.901 455.919 6.41182C455.738 2.70098 457.299 1.29772 460.88 1.35616C468.711 1.484 476.568 1.09389 484.373 1.57647C500.041 2.54513 515.676 1.96416 531.329 1.46438C538.67 1.23003 539.39 2.07583 539.458 9.28463C539.605 24.8442 539.605 24.8442 523.917 24.8598C522.583 24.8611 521.25 24.8635 519.438 24.8656Z" fill="black"/>
<path d="M656.313 126.88C651.815 126.878 647.802 126.656 643.823 126.931C639.546 127.227 638.207 125.21 638.334 121.333C638.584 113.679 638.754 106.022 638.91 98.3648C639.517 68.5451 638.121 38.7431 638.096 8.92888C638.089 1.21382 638.092 1.21162 645.922 1.22847C650.42 1.23817 654.933 1.48631 659.412 1.20811C664.185 0.911755 665.774 2.72468 665.745 7.53825C665.564 37.5239 665.64 67.5112 665.635 97.4979C665.634 104.107 665.642 104.12 672.131 104.131C681.627 104.147 691.124 104.236 700.618 104.098C704.204 104.045 705.829 105.283 705.672 109.012C705.49 113.335 705.469 117.681 705.693 122.001C705.885 125.687 704.475 126.953 700.793 126.918C686.134 126.777 671.473 126.871 656.313 126.88Z" fill="black"/>
</svg>
